<?xml version="1.0" standalone="no"?>
<!DOCTYPE svg PUBLIC "-//W3C//DTD SVG 20010904//EN"
 "http://www.w3.org/TR/2001/REC-SVG-20010904/DTD/svg10.dtd">
<svg version="1.0" xmlns="http://www.w3.org/2000/svg"
 width="700.000000pt" height="700.000000pt" viewBox="0 0 700.000000 700.000000"
 preserveAspectRatio="xMidYMid meet">
<metadata>
Created by potrace 1.14, written by Peter Selinger 2001-2017
</metadata>
<g transform="translate(0.000000,700.000000) scale(0.100000,-0.100000)"
fill="#000000" stroke="none">
<path d="M4710 6800 c0 -6 -4 -9 -10 -5 -5 3 -19 0 -31 -7 -26 -15 -126 -108
-116 -108 3 0 -5 -12 -18 -26 -22 -24 -27 -37 -24 -60 0 -4 -5 -10 -13 -15 -7
-5 -14 -13 -14 -19 -1 -5 -2 -11 -3 -12 -2 -2 -5 -14 -8 -28 -6 -32 -9 -42
-16 -60 -3 -8 -7 -24 -9 -35 -2 -11 -7 -23 -13 -27 -6 -5 -5 -8 4 -8 11 0 11
-3 1 -15 -6 -8 -9 -19 -5 -25 3 -5 2 -10 -3 -10 -5 0 -9 -12 -8 -27 1 -16 -4
-39 -11 -52 -6 -13 -9 -30 -6 -37 3 -8 1 -14 -4 -14 -5 0 -9 -12 -8 -27 0 -16
-2 -41 -7 -58 -4 -16 -10 -50 -13 -75 -4 -25 -7 -49 -8 -55 -1 -5 -6 -13 -12
-17 -6 -5 -5 -8 4 -8 9 0 10 -4 4 -12 -6 -7 -9 -23 -8 -36 1 -13 -2 -25 -7
-28 -4 -3 -8 -10 -8 -15 0 -6 4 -8 10 -4 5 3 3 -6 -5 -21 -7 -15 -11 -33 -8
-42 5 -11 3 -13 -8 -7 -12 8 -12 6 0 -8 7 -9 10 -17 5 -17 -5 0 -10 -12 -11
-27 -1 -28 -7 -67 -19 -133 -3 -19 -7 -45 -7 -57 -1 -13 -4 -23 -8 -23 -3 0
-5 -10 -5 -22 1 -13 -1 -32 -5 -44 -7 -21 -20 -89 -22 -111 0 -7 -4 -13 -8
-13 -4 0 -6 -8 -4 -19 2 -10 -2 -29 -9 -43 -7 -13 -11 -29 -9 -35 2 -6 0 -14
-6 -17 -5 -3 -7 -15 -4 -26 3 -12 0 -20 -8 -20 -7 0 -10 -2 -7 -5 3 -3 -3 -35
-13 -72 -10 -36 -16 -70 -12 -76 3 -6 1 -7 -5 -3 -8 5 -12 -1 -12 -16 0 -13
-7 -34 -16 -46 -8 -12 -11 -22 -4 -22 7 0 7 -6 1 -17 -9 -17 -21 -48 -26 -65
-2 -5 -4 -10 -5 -13 -1 -3 -3 -8 -5 -12 -1 -5 -4 -15 -8 -23 -19 -51 -34 -109
-29 -114 3 -3 1 -6 -5 -6 -6 0 -14 -16 -17 -35 -4 -20 -11 -33 -16 -30 -4 3
-7 -3 -5 -12 1 -10 -2 -24 -8 -30 -5 -7 -6 -13 -2 -13 4 0 3 -6 -2 -12 -6 -7
-16 -30 -23 -51 -7 -22 -18 -51 -26 -65 -7 -14 -11 -29 -8 -34 3 -4 1 -8 -4
-8 -4 0 -19 -30 -32 -67 -13 -38 -28 -71 -33 -74 -5 -3 -8 -9 -8 -13 1 -6 1
-9 -4 -23 -3 -14 -36 -86 -68 -153 -17 -36 -32 -67 -32 -70 -3 -21 -40 -88
-47 -84 -4 3 -5 -1 -2 -9 3 -8 -1 -21 -8 -28 -7 -8 -14 -21 -16 -29 -2 -8 -11
-26 -20 -40 -9 -14 -17 -31 -18 -39 -2 -8 -9 -18 -16 -22 -7 -5 -9 -9 -4 -9 5
0 4 -6 -2 -12 -20 -26 -61 -106 -57 -112 3 -3 2 -4 -2 -1 -7 5 -48 -60 -78
-122 -8 -18 -20 -33 -25 -33 -6 0 -10 -5 -10 -10 0 -11 -33 -60 -62 -94 -10
-11 -20 -28 -24 -38 -3 -10 -10 -16 -15 -13 -5 4 -9 1 -9 -4 0 -19 -141 -171
-159 -171 -5 0 -11 -7 -15 -15 -3 -8 -12 -15 -21 -15 -8 0 -15 -4 -15 -9 0 -5
-11 -12 -25 -15 -14 -4 -25 -11 -25 -16 0 -5 -9 -7 -20 -5 -11 2 -20 0 -20 -4
0 -12 -72 -11 -100 2 -30 14 -70 52 -70 67 0 5 -4 10 -10 10 -5 0 -12 11 -16
25 -3 14 -10 25 -15 25 -5 0 -8 3 -7 8 1 4 -4 23 -11 42 -16 41 -22 60 -23 78
-1 6 -4 12 -8 12 -4 0 -7 6 -8 13 0 6 -3 23 -7 37 -9 36 -15 71 -19 106 -2 17
-6 36 -10 42 -4 7 -9 31 -11 54 -2 24 -4 43 -5 43 -1 0 -4 18 -6 40 -3 22 -6
51 -8 65 -1 14 2 31 8 39 8 11 8 13 -1 8 -9 -6 -11 34 -10 163 1 93 5 170 9
170 3 0 5 8 3 18 -1 9 1 24 6 33 5 10 3 21 -4 28 -8 8 -8 14 -2 19 10 7 11 15
17 89 2 18 5 33 8 33 3 0 6 12 7 28 5 70 8 92 13 92 3 0 7 14 8 31 1 18 6 37
9 43 4 6 8 17 9 26 4 44 15 95 22 100 4 3 7 15 6 28 -1 12 2 22 7 22 4 0 6 9
4 20 -2 11 0 20 4 20 7 0 31 78 34 113 1 9 5 17 9 17 4 0 8 7 8 15 0 8 5 15
11 15 5 0 7 5 4 10 -3 6 -3 16 2 23 4 6 8 14 8 17 1 10 27 86 35 105 18 40 48
135 43 135 -3 0 0 7 7 15 7 8 9 15 5 15 -4 0 -2 7 5 15 6 8 9 19 5 25 -3 5 -2
10 3 10 9 0 8 54 -3 104 -10 49 -64 107 -125 134 -67 31 -167 33 -209 5 -14
-10 -30 -16 -34 -15 -5 1 -6 -2 -3 -7 3 -5 -1 -14 -9 -21 -8 -7 -12 -16 -9
-21 3 -5 1 -9 -5 -9 -5 0 -8 -7 -7 -17 2 -9 -8 -38 -21 -65 -13 -26 -23 -52
-23 -58 0 -5 -12 -35 -26 -67 -37 -84 -51 -117 -53 -128 -2 -5 -12 -26 -24
-45 -12 -19 -21 -37 -21 -40 2 -13 -9 -40 -17 -40 -5 0 -8 -3 -7 -7 1 -5 -5
-22 -15 -39 -9 -17 -13 -34 -10 -38 4 -3 2 -6 -3 -6 -5 0 -18 -20 -29 -45 -11
-25 -24 -45 -28 -45 -5 0 -5 -4 -2 -10 3 -6 1 -10 -5 -10 -6 0 -8 -4 -5 -10 3
-5 1 -10 -4 -10 -6 0 -11 -3 -10 -7 2 -14 -13 -53 -20 -53 -4 0 -15 -20 -26
-45 -11 -25 -24 -45 -28 -45 -5 0 -6 -4 -3 -9 3 -5 -1 -14 -9 -21 -8 -7 -12
-16 -9 -21 3 -5 1 -9 -4 -9 -5 0 -22 -26 -38 -57 -16 -32 -32 -60 -35 -63 -8
-7 -56 -89 -69 -117 -5 -13 -14 -23 -20 -23 -5 0 -10 -8 -10 -18 0 -10 -8 -27
-17 -38 -10 -10 -24 -31 -32 -46 -8 -15 -22 -37 -33 -47 -10 -11 -18 -22 -18
-25 0 -15 -99 -154 -105 -148 -5 4 -5 2 -2 -4 3 -6 -3 -21 -14 -32 -11 -12
-17 -22 -14 -22 3 0 -3 -8 -13 -18 -9 -10 -24 -29 -32 -41 -35 -52 -91 -126
-103 -133 -6 -4 -8 -8 -3 -8 5 0 0 -10 -12 -23 -12 -13 -19 -27 -15 -32 5 -4
3 -5 -4 -1 -7 4 -17 -2 -23 -15 -12 -20 -45 -62 -83 -101 -9 -10 -14 -18 -10
-18 3 0 -7 -11 -23 -25 -16 -14 -26 -25 -23 -25 7 0 -35 -45 -168 -182 -46
-49 -89 -88 -94 -88 -5 0 -9 -3 -9 -7 0 -5 -28 -30 -61 -58 -34 -27 -68 -56
-75 -63 -8 -7 -14 -10 -14 -5 0 4 -4 4 -8 -2 -11 -15 -70 -55 -82 -55 -5 0
-10 -5 -10 -12 0 -6 -3 -8 -7 -5 -3 4 -12 2 -20 -4 -7 -6 -13 -8 -13 -3 0 5
-4 3 -8 -4 -5 -7 -23 -14 -40 -15 -18 -1 -32 -5 -32 -8 0 -9 -63 -3 -91 9 -27
11 -65 56 -71 83 -2 8 -6 16 -9 19 -4 3 -8 19 -10 35 -2 17 -6 35 -10 40 -5 9
-5 290 1 290 2 0 8 33 14 80 2 22 5 42 6 45 1 3 1 16 0 29 -1 13 2 21 7 18 4
-3 9 11 9 31 2 53 15 103 25 96 5 -3 6 1 3 9 -2 7 0 34 6 58 7 24 12 52 13 62
1 9 5 17 10 17 4 0 5 5 2 10 -4 6 -1 17 5 25 7 8 10 15 7 15 -4 0 0 18 8 39 7
22 11 42 8 45 -4 3 -1 6 6 6 7 0 10 4 7 8 -2 4 4 35 15 67 25 72 24 71 34 113
4 17 11 32 16 32 5 0 6 6 3 14 -3 8 0 17 5 21 6 3 9 10 6 15 -3 5 2 21 11 35
9 14 13 25 9 25 -4 0 -2 7 5 15 7 8 10 15 7 15 -3 0 2 19 13 42 10 23 16 46
14 50 -3 4 -1 8 4 8 6 0 13 16 16 35 4 19 10 35 15 35 4 0 8 7 9 15 1 8 3 22
4 30 1 8 6 15 11 15 6 0 7 3 4 7 -4 3 0 17 8 30 9 13 13 23 9 23 -4 0 -1 7 6
15 6 8 9 19 5 25 -3 5 -1 10 4 10 6 0 11 9 11 20 0 11 4 20 8 20 5 0 9 7 10
15 1 8 3 22 4 30 1 8 5 15 10 15 4 0 8 9 8 20 0 11 4 20 10 20 5 0 9 3 8 8 -1
4 4 20 10 35 7 16 12 35 12 43 0 8 5 14 11 14 6 0 9 7 5 15 -3 8 -1 15 4 15 6
0 10 9 10 21 0 13 4 18 12 13 7 -4 8 -3 4 5 -4 6 -2 18 4 26 7 8 9 15 6 15 -4
0 0 12 8 28 23 42 56 123 56 138 0 8 4 14 10 14 5 0 9 3 9 8 -1 4 0 10 1 15 1
4 3 10 4 15 1 4 7 17 14 30 7 12 9 22 5 22 -4 0 -1 6 7 13 8 7 16 19 16 27 2
23 8 44 15 50 3 3 20 43 39 90 18 47 38 94 44 105 6 11 11 22 11 25 2 20 40
110 46 110 4 0 6 9 4 20 -2 11 0 20 6 20 5 0 9 9 9 20 0 11 5 20 12 20 6 0 9
3 5 6 -3 3 -2 17 3 30 26 69 45 264 25 264 -6 0 -5 4 2 8 7 5 9 13 3 21 -4 8
-6 20 -3 28 3 7 1 13 -5 13 -6 0 -8 9 -5 20 3 12 0 20 -8 20 -7 0 -10 3 -6 6
13 13 -51 114 -72 114 -7 0 -10 4 -7 8 3 5 -6 14 -19 20 -14 7 -36 17 -50 23
-24 12 -132 17 -171 8 -54 -12 -126 -83 -143 -141 -15 -48 -21 -74 -26 -108
-5 -30 -13 -65 -15 -65 -2 0 -10 -34 -13 -60 -2 -11 -9 -30 -15 -41 -6 -12 -9
-24 -6 -27 3 -3 1 -14 -4 -24 -6 -10 -12 -31 -15 -48 -3 -16 -11 -48 -18 -70
-7 -22 -12 -43 -11 -47 1 -5 -2 -8 -7 -8 -5 0 -8 -8 -6 -17 1 -10 0 -22 -4
-28 -13 -22 -30 -79 -25 -87 3 -4 0 -8 -7 -8 -7 0 -9 -3 -6 -7 4 -3 2 -12 -4
-20 -6 -7 -8 -13 -5 -13 4 0 1 -10 -6 -22 -6 -13 -13 -27 -14 -33 -2 -5 -5
-19 -8 -30 -2 -11 -10 -33 -17 -50 -6 -16 -13 -34 -15 -40 -20 -64 -71 -201
-77 -206 -5 -3 -8 -9 -8 -13 2 -19 -13 -66 -21 -66 -5 0 -7 -3 -4 -8 2 -4 -6
-29 -18 -54 -13 -26 -18 -44 -12 -41 7 4 7 1 -1 -8 -6 -8 -12 -18 -13 -24 -3
-11 -17 -51 -27 -75 -3 -8 -7 -17 -8 -20 -1 -3 -4 -12 -8 -20 -24 -63 -41
-116 -38 -119 1 -2 -2 -7 -8 -10 -6 -4 -12 -16 -14 -26 -4 -19 -7 -28 -24 -72
-3 -10 -7 -20 -8 -23 -1 -3 -4 -12 -8 -20 -19 -50 -42 -116 -42 -122 0 -3 -3
-10 -7 -14 -5 -4 -8 -16 -8 -26 0 -10 -5 -18 -12 -18 -6 0 -9 -3 -6 -6 3 -3
-5 -35 -19 -72 -13 -37 -26 -75 -28 -84 -2 -9 -8 -25 -14 -36 -6 -11 -7 -22
-4 -26 3 -3 2 -6 -3 -6 -5 0 -11 -12 -12 -26 -1 -14 -5 -31 -9 -37 -4 -7 -9
-18 -10 -24 -5 -20 -9 -37 -16 -53 -3 -8 -9 -28 -13 -45 -10 -41 -11 -45 -14
-47 -1 -2 -3 -10 -5 -18 -2 -8 -11 -44 -20 -80 -9 -36 -18 -78 -21 -95 -3 -16
-9 -34 -13 -40 -4 -5 -7 -25 -7 -42 1 -18 -3 -33 -8 -33 -4 0 -6 -9 -3 -20 3
-11 0 -20 -6 -20 -7 0 -5 -5 3 -10 10 -6 11 -10 3 -10 -7 0 -13 -12 -13 -26 0
-14 -5 -35 -11 -46 -8 -16 -8 -19 1 -13 9 5 9 3 2 -11 -5 -11 -8 -29 -7 -41 1
-13 -1 -23 -5 -23 -3 0 -6 -12 -6 -27 -1 -16 -4 -48 -8 -73 -4 -25 -7 -64 -8
-87 0 -25 -5 -43 -12 -43 -6 0 -4 -5 4 -10 10 -6 11 -10 3 -10 -7 0 -13 -5
-13 -11 0 -5 4 -8 9 -4 6 3 8 -4 5 -17 -10 -41 -11 -97 -2 -92 4 3 8 0 8 -5 0
-6 -6 -11 -12 -11 -9 0 -8 -4 2 -10 12 -8 12 -10 1 -10 -11 0 -11 -3 0 -17 12
-15 12 -16 -1 -8 -12 7 -13 6 -4 -6 7 -8 12 -25 13 -39 1 -30 9 -105 11 -105
1 0 3 -10 6 -22 17 -89 26 -123 36 -123 5 0 7 -4 4 -9 -9 -15 59 -132 102
-176 71 -72 153 -124 202 -128 11 -1 20 -4 20 -7 0 -11 305 -3 328 9 13 7 26
10 29 7 3 -2 42 14 87 38 128 67 160 86 173 104 7 9 13 13 13 9 0 -7 71 45
106 78 32 30 67 55 77 55 4 0 5 5 2 10 -3 6 -2 10 4 10 6 0 36 26 68 57 32 32
62 56 68 55 5 -2 7 0 3 3 -4 4 17 32 47 63 30 30 55 58 55 62 0 3 11 13 25 20
13 7 22 17 19 21 -2 4 5 14 16 22 11 7 17 16 14 19 -3 4 4 9 15 13 12 3 21 10
21 15 0 5 11 20 24 35 50 53 147 175 140 175 -4 0 5 10 20 21 15 12 25 23 22
26 -2 3 3 13 12 22 31 33 51 60 67 91 9 17 23 34 30 37 8 3 13 9 10 13 -3 5 3
13 12 19 10 6 14 11 10 11 -5 0 -2 7 5 15 26 29 38 44 38 49 0 11 64 96 73 96
4 0 5 5 2 10 -3 6 1 13 9 16 9 3 13 10 10 15 -3 5 0 9 6 9 6 0 9 4 6 9 -3 5 1
12 10 15 9 4 14 9 11 12 -6 6 23 44 34 44 3 0 5 -10 4 -22 -1 -13 0 -27 3 -33
3 -5 7 -25 8 -45 9 -137 13 -180 18 -189 4 -6 7 -26 8 -46 1 -19 4 -35 7 -35
3 0 7 -19 9 -43 1 -23 4 -57 5 -74 1 -18 5 -33 10 -33 4 0 7 -16 7 -35 0 -20
5 -35 12 -35 6 0 9 -3 6 -6 -4 -3 2 -34 12 -70 10 -35 17 -64 15 -64 -2 0 2
-12 10 -27 8 -15 12 -30 9 -35 -3 -4 0 -8 5 -8 6 0 11 -8 11 -18 0 -10 4 -22
9 -27 5 -6 14 -27 21 -47 6 -21 16 -38 22 -38 6 0 8 -3 5 -7 -4 -3 0 -15 10
-25 9 -10 12 -18 8 -18 -5 0 0 -7 11 -16 10 -8 12 -12 4 -8 -22 12 65 -93 122
-146 57 -54 116 -92 129 -84 5 3 9 0 9 -7 0 -6 8 -9 20 -6 11 3 18 1 14 -4 -3
-5 -2 -10 3 -10 4 -1 19 -3 33 -6 66 -10 207 -8 230 4 14 7 33 13 42 13 9 0
20 5 23 10 4 6 11 8 16 5 5 -4 9 -2 9 4 0 5 14 13 32 16 17 4 38 14 46 21 7 8
20 14 28 14 8 0 14 5 14 11 0 5 4 7 10 4 6 -3 10 -2 10 3 0 5 12 15 27 23 28
14 53 33 79 57 8 7 14 10 14 5 0 -4 10 2 23 14 151 145 207 203 207 212 0 7 5
9 10 6 6 -3 10 0 10 7 0 8 8 21 18 29 9 9 24 26 32 39 8 13 23 30 32 38 9 9
15 19 12 24 -3 4 -1 8 4 8 5 0 26 26 48 58 21 31 45 63 51 70 7 7 13 19 13 27
0 7 7 15 15 19 8 3 15 10 15 16 0 6 5 16 10 23 20 23 61 89 63 100 1 7 9 19
18 27 9 8 14 21 11 29 -3 8 0 11 6 7 6 -4 16 9 23 29 7 19 17 35 21 35 4 0 8
7 8 15 0 8 5 15 11 15 5 0 8 4 4 9 -3 6 3 14 12 20 10 5 17 11 16 13 -6 8 10
48 19 48 6 0 8 7 4 15 -3 8 -1 15 4 15 5 0 19 21 31 48 12 26 27 50 33 54 6 4
7 8 2 8 -5 0 -3 7 4 15 7 8 9 15 4 15 -4 0 0 6 10 13 9 7 18 20 19 28 2 9 10
27 18 40 8 13 24 44 34 69 11 25 23 48 28 51 5 3 9 10 9 15 0 5 5 20 11 34 6
14 10 28 9 33 -1 4 2 7 8 7 5 0 10 9 10 20 0 11 5 20 12 20 6 0 9 2 6 6 -3 3
5 26 18 51 13 26 21 50 18 55 -3 4 0 8 6 8 6 0 8 5 5 10 -3 6 -2 10 2 10 12 0
34 61 26 73 -3 6 -1 7 5 3 8 -5 12 0 12 13 0 11 5 23 10 26 6 4 8 11 5 16 -4
5 -2 9 4 9 5 0 13 14 16 32 4 18 11 39 15 48 12 24 33 74 36 85 1 6 8 24 15
40 6 17 14 39 16 49 2 11 8 25 14 33 6 7 8 13 4 13 -4 0 -2 6 4 13 6 8 8 17 4
20 -3 4 0 7 7 7 7 0 11 3 8 6 -4 3 6 40 21 82 16 42 29 82 30 87 0 6 6 25 12
43 6 18 12 39 13 45 6 27 28 103 34 112 3 5 7 18 9 30 1 11 4 27 6 35 2 8 7
33 12 55 4 22 11 45 14 50 4 6 8 23 9 39 1 16 9 41 18 54 9 13 11 21 5 18 -15
-10 -14 7 1 22 7 7 8 12 2 12 -5 0 -2 5 6 10 12 8 12 10 1 10 -11 0 -11 3 -1
15 7 8 10 15 7 15 -3 0 -1 16 5 36 16 60 20 78 21 102 1 12 4 22 7 22 3 0 6 8
6 18 1 9 4 31 8 47 7 28 12 56 20 115 2 14 5 25 6 25 2 0 6 17 14 60 15 82 19
112 19 137 0 15 2 26 6 24 3 -2 7 19 9 47 1 28 6 54 10 57 4 3 7 26 7 52 0 27
2 48 5 48 3 0 5 27 5 60 0 33 4 60 8 60 4 0 3 9 -3 20 -8 15 -8 20 1 20 7 0 8
5 3 13 -11 15 -11 38 -1 55 5 6 5 12 0 12 -4 0 -9 17 -10 38 -4 76 -8 102 -15
102 -5 0 -8 7 -8 16 0 8 -4 12 -10 9 -5 -3 -10 0 -10 8 0 21 -39 52 -61 49
-10 -2 -19 1 -19 6 0 5 -27 10 -60 11 -38 1 -60 -2 -60 -9z"/>
<path d="M6368 3784 c-16 -8 -28 -11 -28 -7 0 4 -7 -2 -15 -13 -8 -10 -15 -15
-15 -11 0 9 -60 -30 -71 -46 -3 -5 -8 -7 -11 -5 -4 3 -66 -43 -94 -69 -7 -7
-18 -13 -24 -13 -6 0 -8 -4 -5 -10 3 -5 -1 -10 -10 -10 -9 0 -13 -4 -10 -10 3
-5 2 -10 -3 -10 -13 0 -141 -128 -134 -134 3 -4 -2 -6 -11 -6 -8 0 -19 -9 -22
-20 -4 -11 -11 -18 -16 -15 -5 4 -9 1 -9 -5 0 -10 -34 -52 -87 -107 -13 -13
-23 -26 -23 -28 0 -3 -9 -15 -19 -27 -42 -49 -57 -67 -71 -88 -8 -13 -25 -35
-37 -49 -13 -14 -27 -32 -33 -38 -6 -7 -7 -13 -3 -13 4 -1 -3 -10 -16 -20 -13
-11 -20 -20 -16 -20 3 0 0 -6 -7 -13 -7 -7 -24 -30 -38 -50 -14 -20 -28 -37
-32 -37 -5 0 -8 -5 -8 -11 0 -6 -16 -31 -36 -55 -20 -24 -33 -44 -30 -44 4 0
-3 -10 -16 -23 -13 -12 -27 -30 -33 -39 -33 -55 -100 -148 -107 -148 -4 0 -8
-6 -8 -13 0 -7 -10 -24 -22 -37 -13 -14 -23 -27 -23 -30 0 -4 -8 -14 -17 -24
-10 -10 -18 -23 -18 -31 0 -7 -7 -15 -15 -19 -8 -3 -15 -10 -15 -16 0 -6 -9
-20 -20 -32 -11 -12 -25 -34 -32 -49 -7 -15 -15 -26 -19 -23 -4 2 -11 -6 -15
-18 -3 -12 -12 -28 -18 -35 -28 -32 -36 -43 -36 -51 0 -5 -9 -17 -20 -27 -11
-10 -17 -22 -13 -28 3 -6 1 -7 -6 -3 -6 4 -8 13 -4 19 4 6 8 18 9 27 1 8 5 33
9 55 4 22 7 46 8 53 0 6 3 12 7 12 3 0 6 8 7 18 2 46 8 82 13 82 3 0 5 12 5
28 -1 15 1 32 4 37 3 6 7 18 8 28 5 33 12 62 13 62 2 0 9 35 14 75 3 19 5 35
6 35 2 0 10 38 14 70 2 17 6 37 9 45 8 22 18 72 20 98 0 12 6 22 12 22 5 0 3
5 -5 10 -12 8 -12 10 -1 10 8 0 12 2 9 5 -3 4 -2 24 3 46 5 21 12 56 15 77 3
20 11 40 18 44 7 5 6 8 -4 8 -9 0 -11 3 -5 8 6 4 11 16 12 27 1 11 5 36 9 55
3 19 7 40 8 47 1 7 5 15 8 19 4 3 4 17 2 30 -2 13 -1 24 3 24 9 0 10 109 2
125 -3 6 -4 20 -3 33 0 12 -3 22 -7 22 -5 0 -9 9 -9 20 0 49 -91 160 -159 194
-81 39 -190 41 -288 6 -18 -7 -33 -16 -33 -22 0 -5 -5 -6 -10 -3 -6 3 -13 0
-16 -9 -3 -8 -11 -13 -18 -10 -6 2 -21 -5 -33 -16 -12 -11 -26 -20 -30 -20 -5
0 -20 -11 -35 -25 -15 -14 -31 -25 -36 -25 -6 0 -13 -7 -16 -16 -4 -9 -9 -14
-12 -11 -3 3 -23 -13 -45 -35 -21 -22 -39 -37 -39 -34 0 3 -9 -3 -20 -14 -11
-11 -20 -25 -20 -30 0 -6 -3 -9 -8 -8 -10 4 -196 -184 -233 -236 -16 -21 -29
-35 -29 -30 0 5 -8 -3 -17 -16 -10 -14 -17 -26 -16 -27 2 -2 -7 -13 -20 -25
-12 -13 -31 -36 -42 -51 -19 -28 -44 -59 -65 -84 -6 -7 -8 -13 -3 -13 4 0 -2
-7 -13 -15 -10 -8 -15 -15 -10 -15 5 0 0 -8 -11 -17 -11 -10 -23 -28 -27 -40
-4 -13 -14 -23 -22 -23 -8 0 -13 -3 -12 -7 3 -13 -32 -73 -42 -73 -6 0 -9 -3
-8 -7 1 -5 -10 -27 -25 -50 -15 -24 -27 -45 -27 -48 0 -3 -9 -15 -20 -27 -11
-12 -20 -28 -20 -35 0 -7 -4 -13 -10 -13 -5 0 -10 -6 -10 -14 0 -8 -6 -21 -12
-28 -14 -15 -28 -39 -67 -112 -43 -80 -47 -86 -56 -78 -5 4 -5 2 -1 -5 4 -7
-5 -30 -19 -53 -14 -22 -22 -40 -18 -40 5 0 3 -4 -2 -8 -6 -4 -24 -34 -40 -67
-17 -33 -35 -63 -42 -68 -7 -4 -10 -14 -7 -22 4 -8 0 -17 -8 -20 -8 -3 -15
-15 -15 -28 -1 -12 -7 -23 -13 -25 -5 -2 -10 -10 -10 -18 0 -8 -4 -14 -8 -14
-4 0 -9 -10 -9 -22 -1 -13 -8 -27 -16 -33 -15 -11 -17 -16 -17 -39 0 -8 -6
-21 -13 -28 -7 -7 -15 -17 -16 -23 -3 -14 -28 -69 -62 -139 -16 -32 -26 -63
-23 -67 3 -5 0 -9 -5 -9 -6 0 -10 -3 -9 -7 1 -5 -5 -21 -12 -38 -7 -16 -14
-32 -15 -35 -1 -3 -10 -23 -20 -45 -10 -22 -20 -49 -22 -59 -2 -11 -7 -24 -12
-30 -9 -12 -46 -115 -46 -131 0 -5 -4 -13 -8 -16 -4 -3 -10 -19 -13 -34 -3
-16 -10 -35 -15 -42 -6 -6 -11 -27 -12 -46 -1 -19 -5 -33 -9 -30 -5 2 -8 -5
-8 -16 0 -11 -4 -22 -9 -25 -5 -4 -8 -14 -6 -24 1 -9 -1 -22 -6 -28 -27 -34
-27 -213 0 -222 6 -2 7 -11 4 -20 -3 -9 -3 -14 1 -11 3 3 22 -8 40 -26 38 -36
38 -35 123 -40 44 -2 65 1 74 11 6 7 15 12 19 9 22 -14 109 136 113 193 0 6 3
12 7 12 3 0 6 10 7 22 1 11 7 24 13 28 6 4 10 11 9 16 -1 5 1 17 4 27 4 9 10
25 14 35 3 9 5 20 5 25 -1 4 2 7 8 7 5 0 7 7 4 15 -4 8 -1 15 6 15 7 0 10 7 6
15 -3 9 1 18 9 21 7 3 11 12 8 20 -3 8 -1 14 5 14 6 0 9 8 8 17 -2 10 5 32 15
50 10 17 15 34 12 37 -4 3 -2 6 4 6 5 0 10 7 11 15 1 8 3 22 4 30 1 8 5 15 10
15 4 0 8 7 8 15 0 9 9 34 20 57 11 22 17 44 15 49 -3 4 -1 9 5 11 6 2 12 14
15 27 2 12 9 29 16 37 6 8 8 14 4 14 -4 0 -2 6 4 13 6 8 8 17 4 20 -3 4 -1 7
5 7 7 0 12 9 12 21 0 13 4 18 12 13 7 -4 8 -3 4 4 -4 6 3 33 15 59 13 26 23
53 24 58 1 10 57 134 76 168 5 10 7 23 3 30 -4 7 -4 9 1 5 9 -8 35 36 35 58 0
8 4 14 9 14 5 0 12 12 16 27 3 15 14 33 23 41 11 9 12 11 2 6 -11 -6 -10 -2 3
13 9 11 17 25 17 32 0 7 7 19 15 28 8 8 13 19 10 24 -4 5 -2 9 3 9 9 0 34 56
29 63 -1 2 6 11 16 21 9 10 15 21 12 26 -3 4 2 11 11 14 8 3 12 10 9 16 -3 5
-1 10 4 10 6 0 11 3 10 8 -2 15 14 52 23 52 5 0 6 5 3 10 -3 6 -1 10 5 10 6 0
8 5 5 10 -3 6 -2 10 4 10 6 0 13 11 17 25 3 14 10 25 14 25 6 0 16 23 19 45 0
3 10 15 21 27 11 12 20 26 20 32 0 5 6 17 14 25 8 9 16 22 18 30 2 8 11 23 21
33 9 10 17 25 17 33 0 8 4 15 8 15 4 0 21 23 37 50 16 28 33 50 37 50 4 0 8 5
8 10 0 13 106 156 137 186 13 11 20 24 16 27 -3 4 -2 7 4 7 12 0 55 36 53 45
-2 10 48 54 54 47 3 -3 6 2 6 11 0 10 5 17 10 17 6 0 23 11 37 24 15 14 42 33
62 43 20 10 39 22 42 27 4 5 11 6 17 2 6 -3 13 -2 17 4 3 5 23 10 45 10 33 0
39 -4 46 -27 11 -41 11 -46 1 -67 -6 -12 -6 -16 1 -12 12 7 9 -65 -4 -85 -5
-8 -3 -10 6 -4 10 6 11 4 4 -6 -4 -8 -9 -23 -10 -34 0 -11 -5 -42 -9 -70 -5
-27 -7 -56 -6 -62 1 -7 -2 -13 -7 -13 -5 0 -8 -13 -7 -30 1 -16 -2 -30 -6 -30
-4 0 -6 -13 -5 -30 1 -16 -1 -31 -5 -32 -4 -2 -10 -20 -13 -42 -4 -21 -9 -43
-12 -48 -4 -6 -8 -22 -10 -37 -3 -28 -11 -66 -14 -66 -1 0 -3 -7 -5 -15 -2 -8
-6 -26 -9 -40 -8 -38 -14 -62 -25 -97 -5 -17 -7 -34 -3 -37 3 -3 1 -6 -4 -6
-5 0 -10 -10 -11 -23 -3 -25 -5 -36 -22 -97 -8 -25 -15 -52 -16 -60 -2 -8 -4
-15 -5 -15 -2 0 -5 -13 -13 -55 -3 -14 -10 -38 -16 -53 -6 -15 -10 -31 -9 -35
1 -4 -1 -14 -5 -22 -3 -8 -9 -28 -13 -45 -10 -41 -11 -45 -14 -47 -2 -4 -7
-24 -15 -62 -3 -16 -8 -33 -11 -38 -3 -5 -8 -21 -11 -36 -8 -41 -11 -57 -13
-59 -2 -2 -3 -6 -4 -10 -1 -5 -4 -12 -7 -18 -4 -5 -5 -18 -4 -27 2 -10 0 -18
-4 -18 -4 0 -8 -12 -9 -26 -1 -14 -5 -31 -9 -37 -4 -7 -8 -16 -9 -22 -1 -5 -5
-23 -9 -40 -4 -16 -9 -42 -12 -57 -3 -16 -9 -28 -12 -28 -4 0 -7 -10 -6 -22 1
-13 -2 -29 -8 -35 -5 -7 -6 -13 -3 -13 4 0 2 -9 -4 -21 -7 -11 -13 -33 -14
-47 -2 -15 -6 -34 -9 -42 -7 -20 -20 -72 -31 -125 -1 -5 -5 -16 -9 -23 -5 -6
-6 -12 -4 -12 4 0 -3 -36 -19 -95 -11 -40 -11 -165 0 -165 6 0 4 -5 -4 -10
-12 -8 -12 -10 -1 -10 8 0 12 -3 8 -6 -6 -6 6 -24 35 -51 24 -23 80 -40 119
-36 19 2 40 5 46 5 7 1 15 10 19 20 3 10 9 16 14 13 5 -3 16 7 24 22 8 15 15
24 16 18 0 -5 10 10 22 35 12 25 24 47 27 50 11 9 66 133 63 142 -1 4 2 8 8 8
6 0 9 3 8 8 -3 15 96 227 111 237 6 3 11 15 11 25 0 10 6 23 13 27 12 8 28 33
55 86 7 15 18 27 24 27 6 0 9 3 5 6 -3 3 19 42 49 85 30 43 54 84 54 89 0 6 7
13 15 16 8 4 12 10 9 15 -3 5 -2 9 3 9 4 0 21 23 38 50 16 28 33 50 37 50 4 0
8 6 8 13 0 7 9 23 20 35 12 12 18 22 14 22 -4 0 2 9 14 20 12 12 22 25 22 30
0 5 6 15 14 22 7 8 21 29 30 46 9 18 21 30 27 27 5 -4 8 -2 7 2 -4 12 54 103
65 103 4 0 5 4 2 10 -3 5 4 20 15 32 12 13 29 36 37 52 8 16 24 38 34 49 10
12 19 26 19 33 0 6 7 14 15 18 8 3 15 12 15 19 0 12 10 26 50 75 6 6 8 12 5
12 -4 0 0 7 8 15 8 8 25 31 38 52 13 21 29 42 36 46 7 4 13 14 13 22 0 8 9 20
20 27 11 7 20 17 20 23 0 6 12 24 28 41 15 17 34 41 42 54 17 25 56 74 83 101
9 11 15 19 12 19 -3 0 4 11 17 24 54 56 88 97 88 107 0 6 5 7 10 4 6 -3 10 -1
10 5 0 6 47 57 105 115 58 57 105 102 105 99 0 -3 15 9 33 25 37 36 47 38 47
12 0 -11 4 -22 9 -25 5 -3 7 -16 3 -28 -3 -14 -1 -19 6 -14 7 4 8 -3 2 -24 -5
-17 -9 -33 -9 -35 0 -3 -3 -27 -7 -53 -5 -26 -7 -50 -6 -54 1 -5 -2 -8 -6 -8
-4 0 -8 -8 -9 -17 -5 -57 -12 -85 -24 -100 -10 -11 -10 -14 -1 -9 6 4 12 2 12
-3 0 -6 -4 -11 -9 -11 -4 0 -7 -11 -6 -25 2 -14 0 -25 -4 -25 -4 0 -7 -8 -8
-17 -1 -10 -5 -31 -8 -48 -4 -16 -7 -40 -8 -52 -1 -13 -4 -23 -8 -23 -3 0 -5
-16 -4 -35 1 -19 -2 -35 -6 -35 -4 0 -9 -15 -12 -32 -3 -18 -8 -46 -12 -63 -4
-16 -8 -40 -8 -52 -1 -13 -4 -23 -7 -23 -3 0 -7 -13 -8 -30 -1 -16 -6 -40 -11
-52 -4 -13 -7 -31 -6 -40 2 -10 0 -18 -4 -18 -4 0 -7 -8 -7 -17 -1 -10 -4 -31
-8 -48 -4 -16 -9 -39 -11 -50 -2 -11 -6 -33 -10 -50 -3 -16 -8 -39 -10 -50 -2
-11 -6 -27 -9 -35 -3 -8 -8 -33 -11 -55 -7 -46 -13 -70 -15 -70 -1 0 -3 -11
-5 -25 -1 -14 -8 -45 -14 -69 -7 -24 -13 -56 -13 -72 -1 -16 -4 -29 -8 -29 -7
0 -9 -14 -11 -63 0 -15 -4 -25 -8 -23 -3 3 -7 -3 -7 -12 -1 -27 -14 -96 -23
-130 -5 -17 -7 -33 -3 -36 3 -3 0 -6 -7 -6 -7 0 -10 -4 -7 -9 4 -5 0 -37 -8
-72 -8 -34 -13 -66 -10 -71 3 -4 1 -8 -5 -8 -6 0 -8 -7 -5 -15 4 -8 2 -15 -2
-15 -5 0 -10 -10 -10 -22 -2 -37 -16 -112 -23 -128 -7 -13 -7 -35 -2 -42 2 -2
4 -13 7 -26 9 -51 66 -128 111 -151 29 -15 76 -14 92 2 11 10 12 9 6 -2 -5 -8
3 -6 21 5 41 27 74 60 74 73 0 6 5 11 11 11 5 0 7 5 4 10 -3 6 -2 10 4 10 8 0
22 26 26 50 0 3 7 22 14 42 7 21 10 42 6 48 -3 5 -1 10 4 10 6 0 10 3 10 8 -1
4 0 10 1 15 1 4 4 16 5 27 1 11 3 21 4 23 2 1 4 18 6 38 1 20 6 47 11 60 4 13
7 32 5 43 -1 10 1 16 6 13 4 -3 7 11 7 31 -1 21 1 42 4 47 4 6 7 19 8 30 3 28
12 86 19 115 3 14 8 42 10 62 2 20 6 41 9 47 3 5 7 28 8 51 1 22 4 43 8 45 4
3 6 16 5 30 -2 14 0 25 4 25 4 0 6 17 6 38 0 20 3 45 8 54 4 10 9 34 12 55 2
21 6 49 9 63 3 14 7 41 10 60 3 19 8 46 11 60 9 39 16 91 18 132 1 20 5 34 9
32 4 -3 6 4 6 13 -1 10 2 35 6 56 11 63 18 109 20 133 2 13 5 27 9 30 3 3 3
12 0 20 -3 8 -1 14 3 14 5 0 10 16 11 35 1 19 3 51 4 70 1 19 5 33 8 31 3 -2
7 18 9 46 1 27 6 57 11 66 4 9 7 27 6 40 -1 12 3 22 9 22 6 0 4 5 -4 10 -8 5
-10 10 -3 10 6 0 10 11 8 25 -1 14 1 25 4 25 4 0 7 10 8 23 0 12 4 38 7 57 7
37 12 66 20 115 2 17 10 50 16 75 6 25 12 60 13 78 1 17 4 32 7 32 3 0 6 26 8
58 1 31 2 62 3 67 0 8 -7 104 -13 173 -1 6 -5 12 -10 12 -5 0 -7 4 -4 9 3 5
-1 14 -9 21 -8 7 -15 19 -15 26 0 41 -181 62 -242 28z"/>
</g>
</svg>
