<?xml version="1.0" encoding="UTF-8"?>
<!-- Generator: Adobe Illustrator 24.3.0, SVG Export Plug-In . SVG Version: 6.00 Build 0)  -->
<!DOCTYPE svg PUBLIC "-//W3C//DTD SVG 1.1//EN" "http://www.w3.org/Graphics/SVG/1.1/DTD/svg11.dtd">
<svg version="1.1" id="Layer_1" xmlns:x="http://ns.adobe.com/Extensibility/1.0/" xmlns:i="http://ns.adobe.com/AdobeIllustrator/10.0/" xmlns:graph="http://ns.adobe.com/Graphs/1.0/" xmlns="http://www.w3.org/2000/svg" xmlns:xlink="http://www.w3.org/1999/xlink" x="0px" y="0px" viewBox="0 0 700 718.9" style="enable-background:new 0 0 700 718.9;" xml:space="preserve">
<style type="text/css">
	.st0{fill:#F8BF20;}
	.st1{fill:#F59222;}
	.st2{fill:#EE4723;}
	.st3{fill:none;}
	.st4{display:none;}
</style>
<metadata>
	<sfw xmlns="http://ns.adobe.com/SaveForWeb/1.0/">
		<slices/>
		<sliceSourceBounds bottomLeftOrigin="true" height="698.5" width="657.7" x="6" y="-714"/>
	</sfw>
</metadata>
<path class="st0" d="M511.8,205.4c70.8,87.1,70.8,194.9,18.5,278.7c-58.8,93.6-203.6,117.6-276.5,59.9S183,409,200.4,363.2  s84.9-108.9,189.4-89.3c0,0-75.1,16.3-89.3,107.8S404,530.9,474.8,446s12-200.3-30.5-248.2s-117.5-92.5-174.2-93.6  c0,0,114.3-19.6,212.3,70.8l1.1,1.1l0,0c-2.2-7.6-3.2-15.2-2.2-24c4.4-29.4,32.7-52.3,62-50.1c29.4,2.2,49,27.2,44.6,56.6  c-4.3,29.4-32.7,52.3-62,50.1C521.6,208.7,516.1,206.5,511.8,205.4L511.8,205.4z"/>
<path class="st1" d="M192.8,613.7c33.7,27.2,71.9,40.3,96.9,46.8c47.9,10.9,163.3,10.9,227.5-75.1c-13.1,13.1-99.1,63.1-188.3,41.4  c-90.4-22.8-143.7-69.7-169.8-152.4s28.3-152.4,28.3-152.4S95.9,391.5,121,500.4c7.6,31.6,20.7,57.7,38.1,79.5l0,0  c-17.4-4.4-37,1.1-52.3,14.1c-24,20.7-28.3,52.3-9.8,74c18.5,21.8,50.1,20.7,74,1.1C188.4,653.9,196.1,632.2,192.8,613.7  L192.8,613.7z"/>
<path class="st2" d="M171,205.4c-46.8,29.4-82.7,75.1-101.2,121.9C36.1,415.5,61.1,495,97,539.6c0,0-38.1-86,0-175.3  s101.2-125.2,157.9-143.7S406.2,212,453,275.1c0,0-31.6-91.5-143.7-103.4c-32.7-3.2-64.2,1.1-92.5,10.9l0,0  c4.4-7.6,6.5-16.3,6.5-26.1c1.1-30.5-21.8-58.8-50.1-63.1c-28.3-4.4-52.3,17.4-52.3,49S142.7,201.1,171,205.4L171,205.4z"/>
<g>
	<g>
		<g>
			<path class="st0" d="M657.1,320.3c-0.4,0-0.8,0-1.2,0.1l-50.2,5.9c-2.7,0.3-3.9,2.9-3.7,4.6c0.1,1.7,1.6,4,4.2,4     c0.1,0,0.1,0,0.2,0l50.5-1.5c2.1,0,3.9-0.7,5.1-2c1.2-1.3,1.8-3,1.7-5l0,0l0,0C663.3,322.7,660.7,320.3,657.1,320.3L657.1,320.3z     "/>
		</g>
	</g>
	<g>
		<g>
			<path class="st0" d="M602.3,408.3c-2.3,0-3.9,2-4.1,3.5c-0.2,0.8-0.1,1.9,0.3,2.8c0.5,1.2,1.5,2,2.7,2.3l48.8,12.7     c0.7,0.2,1.5,0.3,2.2,0.3c3.1,0,5.5-1.9,6.3-5.2l0,0l0,0c0.3-2,0-3.8-1-5.2c-1-1.4-2.7-2.4-4.8-2.7l-49.7-8.4     C602.8,408.4,602.5,408.3,602.3,408.3L602.3,408.3z"/>
		</g>
	</g>
	<g>
		<g>
			<path class="st0" d="M572.7,486.3c-1.7,0-3.2,1.1-3.8,2.2c-0.4,0.7-0.7,1.8-0.5,2.7c0.1,1.3,0.8,2.4,1.9,3l42.6,27.3     c1.3,0.9,2.7,1.3,4.1,1.3c2.2,0,4.2-1.2,5.5-3.3l0,0l0,0c0.9-1.8,1.2-3.6,0.6-5.2c-0.5-1.7-1.8-3.1-3.7-4.1l-44.8-23.5     C573.9,486.4,573.3,486.3,572.7,486.3L572.7,486.3z"/>
		</g>
	</g>
	<g>
		<g>
			<g>
				<path class="st0" d="M632.3,225c-1.1,0-2.2,0.3-3.3,0.8l-45.9,21c-2.4,1.1-2.8,4-2.1,5.5c0.4,1.2,1.9,2.7,4,2.7      c0.5,0,0.9-0.1,1.4-0.3l47.5-16.9c2-0.7,3.4-1.9,4.2-3.5c0.7-1.6,0.8-3.4,0.1-5.3l0,0l0,0C637,226.5,634.9,225,632.3,225      L632.3,225z"/>
			</g>
		</g>
	</g>
</g>
<g>
	<g>
		<g>
			<path class="st0" d="M460.1,46.8c-2.7,0-5,1.7-6.1,4.6l-18.7,46.8c-0.5,1.2-0.4,2.4,0.3,3.6c0.5,0.9,1.3,1.6,2,1.9     c0.5,0.2,1.1,0.4,1.8,0.4c1.7,0,3.1-0.9,3.8-2.3l22.7-45c1-1.9,1.2-3.7,0.6-5.4c-0.5-1.7-1.8-3-3.6-3.9l0,0l0,0     C462,47,461,46.8,460.1,46.8L460.1,46.8z"/>
		</g>
	</g>
</g>
<g>
	<g>
		<path class="st0" d="M367.6,15.5c-3.7,0-6.3,2.5-6.6,6.4L356.7,72c-0.1,1.3,0.3,2.4,1.3,3.3c0.7,0.7,1.7,1.2,2.5,1.2    c0.2,0,0.3,0,0.5,0c1.5,0,3.9-0.9,4.3-3.5l8.7-49.5c0.4-2.1,0.1-3.9-1-5.4c-1-1.4-2.6-2.4-4.5-2.7l0,0l0,0    C368.1,15.5,367.9,15.5,367.6,15.5L367.6,15.5z"/>
	</g>
</g>
<path id="SVGID_x5F_1_x5F__2_" class="st3" d="M547.1,582.5c0,0-64.5,91.8-188,96.2c-104.9,3.3-148.7-37.2-148.7-37.2"/>
<text class="st4"><textPath xlink:href="#SVGID_x5F_1_x5F__2_" startOffset="26.465%" style="display:inline;">
<tspan style="fill:#3F3F3F; font-family:'OpenSans'; font-size:40.9041px; letter-spacing:40;">     Discovery</tspan></textPath>
</text>
<path id="SVGID_x5F_2_x5F_" class="st3" d="M550.3,222.8c0,0,67.1,109.5,19.3,222.2c-43.5,102.7-101.2,122.1-101.2,122.1"/>
<text class="st4"><textPath xlink:href="#SVGID_x5F_2_x5F_" startOffset="9.1185%" style="display:inline;">
<tspan style="fill:#3F3F3F; font-family:'OpenSans'; font-size:40.9041px; letter-spacing:40;">Therapeutics</tspan></textPath>
</text>
<path id="SVGID_x5F_3_x5F_" class="st3" d="M70.7,529.5c0,0-54-92.9-16.3-196.5c32.8-90,91.4-127.7,91.4-127.7"/>
<text class="st4"><textPath xlink:href="#SVGID_x5F_3_x5F_" startOffset="23.694%" style="display:inline;">
<tspan style="fill:#3F3F3F; font-family:'OpenSans'; font-size:40.9041px; letter-spacing:40;">               Care</tspan></textPath>
</text>
</svg>